#!OML:ASF F:\VICON\USERDATA\INSTALL\rory3\rory3.ASF
:FULLY-SPECIFIED
:DEGREES
18
root 0.8532004857847533 17.721810862755937 -15.393888330229684 0.6113183735702541 -7.219714472190406 -8.965483122967475
lfemur -25.77368816269651 -5.691877617218306 -7.084758304812089
ltibia 12.623810470481157
lfoot -6.506939132682452 13.109880335571667
ltoes -0.467492432958148
rfemur 11.399383798238333 8.370176087144014 35.485685581140245
rtibia 23.550307312614457
rfoot -17.988289903091015 -5.057512377338886
rtoes -6.620394004244959
lowerback 8.691004969335857 2.9330265492502834 9.205021773455291
upperback -0.2961010824946338 4.959955254815561 2.3464130004333574
thorax -4.627068061223091 2.252445786276577 -3.285372793834648
lowerneck -16.812697477787427 -2.842611581485054 -1.278770204126722
upperneck 21.77109099264765 -3.6821302754967338 0.25725344875684575
head 9.702821473988417 -1.783680136979231 -0.18316458535171357
lclavicle -1.9532406450981722e-15 9.067692723530645e-16
lhumerus -38.73858630070016 6.998758103680249 81.50190922320465
lradius 21.81500737377341
lwrist 2.181877801554387
lhand -26.959001185364382 19.65451035906941
lfingers 7.12502
lthumb -0.38045118546129103 49.633910334165165
rclavicle -1.9532406450981722e-15 9.067692723530645e-16
rhumerus -21.923517347229797 -8.062566419416376 -82.99508682301622
rradius 29.725085087254566
rwrist 1.1132425232620928
rhand -18.3558928462036 25.061889232939414
rfingers 7.12502
rthumb 7.92684715323144 -4.769470660704259
19
root 0.9375104698111061 17.818605433684287 -14.527988716893104 0.022008424447381714 -7.2347544258143035 -7.496886733514476
lfemur -24.746088857474536 -3.71945517898686 -10.409513518293856
ltibia 15.30130899622429
lfoot 0.23016691159080604 5.892660538807225
ltoes -1.708382635593522
rfemur 12.902182781693742 7.801058114359773 33.329588753352105
rtibia 26.20290580675723
rfoot -14.400793648676537 -2.7755366280298945
rtoes -10.65697757961516
lowerback 8.540246855089347 2.9138266637801085 7.867064839450532
upperback -0.20208064196019188 4.766205999680808 2.1079354099589587
thorax -4.547449874083488 2.1937262746363877 -2.767044933570514
lowerneck -16.94959562751141 -2.8543511694818737 -1.4385578115415902
upperneck 22.056087608310786 -3.615011714522046 0.09139802747715031
head 9.828907516377091 -1.783740133640304 -0.2104246855617428
lclavicle -1.9532406683098537e-15 9.067691698370563e-16
lhumerus -39.17258561642481 8.868084557357797 80.7498134767226
lradius 20.294110612158274
lwrist 1.1092113278760438
lhand -27.20779988368733 18.48601356273374
lfingers 7.12502
lthumb -0.6207718835770943 48.46481353897279
rclavicle -1.9532406683098537e-15 9.067691698370563e-16
rhumerus -22.889614665593175 -9.356964269179368 -82.56978827452367
rradius 29.250086535557877
rwrist 1.5441814525240787
rhand -19.79068051460789 23.016497377356664
rfingers 7.12502
rthumb 6.541909487886906 -6.862472300716443
20
root 0.9908761937594666 17.918499830747738 -13.649489109183074 -1.037329615179502 -5.646659322748793 -4.494634114558265
lfemur -22.277190526740355 -3.7424850906960083 -14.944306989731466
ltibia 16.290208451726564
lfoot 3.032019602933592 0.12930668666174516
ltoes -3.0354207134481928
rfemur 11.890783465838844 6.226153724217706 29.764293998882003
rtibia 32.99190195270277
rfoot -7.956000377470873 -1.7821084785123595
rtoes -9.703399097331491
lowerback 8.386508778117612 2.6323183430139583 4.809441846146558
upperback -0.31018469910425933 4.050038752971878 1.373542830101535
thorax -4.793894262686292 1.8981187331521456 -1.7586790962573415
lowerneck -16.252005055944924 -3.0290950368110257 -1.45551755759426
upperneck 22.235285480334767 -3.8949857118655067 0.19302229251415648
head 9.76651947462414 -1.9058433383668243 -0.19979703635473708
lclavicle -1.953240616762468e-15 9.067692386692542e-16
lhumerus -39.319885384181084 10.017582376631207 79.69281945460912
lradius 18.120415240521236
lwrist -0.6389309252193502
lhand -27.039500764202796 18.007514874632243
lfingers 7.12502
lthumb -0.4582557639722059 47.986814849295314
rclavicle -1.953240616762468e-15 9.067692386692542e-16
rhumerus -24.533710102008907 -12.342309309962666 -81.76359102600568
rradius 27.66969135429171
rwrist 2.5871188611760525
rhand -20.067978131313016 22.673998741130454
rfingers 7.12502
rthumb 6.274181872346501 -7.21312090013559
21
root 0.9847958805705046 18.01965500529305 -12.405926311489766 -2.976145167956974 -6.347915408997977 -2.171193960402372
lfemur -19.177617509277567 -2.014968809015085 -20.658373637246346
ltibia 24.109196856220255
lfoot -3.8787913914122543 -0.23840203019718942
ltoes -3.9013615728166386
rfemur 5.406000589384664 4.273187026664858 26.183580258446092
rtibia 43.19793349836128
rfoot 2.7947076180880046 1.8548671646801118
rtoes -4.57383603385871
lowerback 9.427616866705552 2.9340368128809553 2.9413083544363623
upperback 0.09448013500484287 4.175334423740969 0.5142631040637204
thorax -4.800710875932319 1.9646655994297786 -1.8965879557438905
lowerneck -16.44714653076025 -3.063551861416179 -1.4542130594309706
upperneck 21.5350717710247 -3.980644350853145 0.3804532084923534
head 9.603648619763732 -1.9328477861056057 -0.0964888639770693
lclavicle -1.953240616887601e-15 9.067692338849077e-16
lhumerus -38.45212760973628 9.554882839287075 79.96405757690148
lradius 17.720912969304628
lwrist -1.0189689689121781
lhand -23.665090417617083 28.526740882739947
lfingers 7.12502
lthumb 2.689704346234932 57.92393043437997
rclavicle -1.95324061709762e-15 9.067692336923034e-16
rhumerus -25.666450202361297 -14.708720938086318 -81.41126586298248
rradius 27.04962624011719
rwrist 3.981499994098077
rhand -18.52679670569762 22.73643640246588
rfingers 7.12502
rthumb 7.81814117043352 -7.107362290496109
22
root 1.0087497399185392 18.127529918392437 -11.090006919023592 -3.942229748627974 -6.92260078882758 -0.641779529862903
lfemur -15.684718346696984 -1.7214171417124722 -23.18927004039043
ltibia 24.9529502392743
lfoot -7.417963901348583 1.3752166313028187
ltoes -2.7086328213008057
rfemur -1.4477587197448933 3.844858982640784 23.36717600692734
rtibia 55.16703183828355
rfoot 15.288537311664186 3.170501256763268
rtoes 5.654821868582871
lowerback 9.788814843232268 2.895880415252003 1.464780024801516
upperback 0.3642055057033432 3.8523799399208927 0.05608778083880073
thorax -4.890177059408033 1.9306287993792053 -1.1168507007309456
lowerneck -16.03570203138671 -3.110838483573839 -1.2419196575728844
upperneck 21.342089649730145 -4.102398227260608 0.4882429700010272
head 9.497207111726626 -1.9663982774295121 -0.10050155142149148
lclavicle -1.9532406168844578e-15 9.067692338900404e-16
lhumerus -37.98265121713328 7.616922071659496 80.89284926441901
lradius 18.520220930107406
lwrist 0.20013263904919043
lhand -23.97064319329689 27.305419489047594
lfingers 7.12502
lthumb 2.520464236184117 57.208168903302756
rclavicle -1.953240617110686e-15 9.067692336822462e-16
rhumerus -26.103341896095074 -14.82642202307175 -81.25412777245838
rradius 25.75687944815219
rwrist 5.752059357446731
rhand -18.176591161697846 22.326705378751626
rfingers 7.12502
rthumb 8.185851186984726 -7.379637666775047
23
root 1.0060250338011938 18.182077262671502 -10.323887114277651 -4.506144193476793 -7.381514772670274 0.347529490990532
lfemur -12.289929831890497 -1.3837472167527045 -24.6198096540515
ltibia 24.570466707185005
lfoot -8.806024706842386 1.768571514595448
ltoes -0.44240081203576853
rfemur -7.267425054037087 3.035910902030302 21.672003956067268
rtibia 65.96106173113952
rfoot 20.210849681981816 1.236788903685519
rtoes 14.845032422385122
lowerback 10.102588367741621 2.5487453240750515 0.46688754494383866
upperback 0.46130686248852165 3.34300795025681 -0.3431281716643313
thorax -4.98230725497267 1.690475259800745 -0.6198455770868084
lowerneck -16.312014833214313 -3.0568225666869244 -1.5459333574759013
upperneck 21.398440729981775 -4.058581114696158 0.6993108801700937
head 9.581221390502414 -1.926798787645858 -0.009056001934424879
lclavicle -1.9532406169004614e-15 9.067692338767643e-16
lhumerus -36.87044990637639 6.35941356698714 81.53933077295679
lradius 19.1032510794818
lwrist 1.5566693635623605
lhand -23.879145797925915 28.526102224153263
lfingers 7.12502
lthumb 2.775373345855101 58.63678704403962
rclavicle -1.953240617094774e-15 9.067692336985113e-16
rhumerus -26.326665071012272 -16.963869561596862 -81.08670292054578
rradius 23.996753324871708
rwrist 7.542731320356965
rhand -17.772961569774463 22.31938972074477
rfingers 7.12502
rthumb 8.508881269754466 -7.41562182286085
